# xmcd
#
# Track frame offsets: 
#        150
#        10440
#        13223
#        24781
#        26206
#        40089
#        43809
#        60399
#        63894
#        81789
#        83012
#        98972
#        104582
#        119867
#        123625
#        135115
#        136915
#        150955
#        156423
#        172848
#        178436
#        196189
#        197824
#        213604
#
# Disc length: 3055 seconds
#
# Revision: 0
# Processed by: cddbd v1.5.2PL0 Copyright (c) Steve Scherf et al.
# Submitted via: ExactAudioCopy v0.99pb5
#
DISCID=490bed18
DTITLE=Highlands Country - September 26, 2010
DYEAR=2010
DGENRE=Country
TTITLE0=I'm From The Country (Partial)
TTITLE1=How's The Weather?
TTITLE2=Are You Washed In The Blood?
TTITLE3=Talking
TTITLE4=I Stand Amazed
TTITLE5=Welcome
TTITLE6=Can't Take Him Out Of Me
TTITLE7=Talking
TTITLE8=I Still Believe
TTITLE9=Talking
TTITLE10=Let It Rise
TTITLE11=Announcements - Bill
TTITLE12=I'm From The Country (Partial)
TTITLE13=How's The Weather?
TTITLE14=Are You Washed In The Blood?
TTITLE15=Talking
TTITLE16=I Stand Amazed
TTITLE17=Welcome
TTITLE18=Can't Take Him Out Of Me
TTITLE19=Talking
TTITLE20=I Still Believe
TTITLE21=Talking
TTITLE22=Let It Rise
TTITLE23=Three Wooden Crosses
EXTD=
EXTT0=
EXTT1=
EXTT2=
EXTT3=
EXTT4=
EXTT5=
EXTT6=
EXTT7=
EXTT8=
EXTT9=
EXTT10=
EXTT11=
EXTT12=
EXTT13=
EXTT14=
EXTT15=
EXTT16=
EXTT17=
EXTT18=
EXTT19=
EXTT20=
EXTT21=
EXTT22=
EXTT23=
PLAYORDER=
